<svg width="179" height="318" viewBox="0 0 179 318" fill="none" xmlns="http://www.w3.org/2000/svg">
    <path
        d="M177.36 317.423H177.86V316.923V288.635V288.135H177.36H173.304H172.804V288.635V312.362H5.55068V99.5665L89.2014 8.72905L172.804 99.5664V134.823V135.323H173.304H177.36H177.86V134.823V97.7862V97.5911L177.728 97.4476L89.5694 1.6614L89.2016 1.26177L88.8337 1.6613L1.16781 96.8633L1.16707 96.8641L0.631446 97.4483L0.5 97.5917V97.7862V316.923V317.423H1H177.36Z"
        fill="white" stroke="white" />
    <path
        d="M41.8738 223.252H40.0496V222.94L39.327 223.299L39.3174 223.304L39.4215 223.747H39.0496C39.0496 237.318 43.9633 248.757 52.6123 256.8C61.2584 264.841 73.599 269.454 88.3969 269.454C107.211 269.454 121.264 262.58 130.609 252.04C139.946 241.508 144.549 227.354 144.549 212.833C144.549 199.039 139.236 189.934 131.258 183.502C123.311 177.096 112.741 173.36 102.256 170.217C100.105 169.573 97.9584 168.953 95.838 168.341C87.5827 165.959 79.7232 163.69 73.5102 160.49C69.6167 158.485 66.4106 156.132 64.1782 153.191C61.9529 150.26 60.676 146.719 60.676 142.294C60.676 136.249 63.7821 130.743 69.6518 126.729C75.5299 122.708 84.1796 120.191 95.2022 120.191C107.378 120.191 116.303 123.432 122.175 128.404C128.042 133.373 130.9 140.101 130.9 147.169C130.9 152.355 129.751 155.959 128.062 158.593L127.784 159.026L128.225 159.292L130.167 160.46L130.582 160.71L130.845 160.302C132.657 157.485 134.234 152.907 134.234 147.169C134.234 138.945 131.065 131.348 124.572 125.814C118.085 120.286 108.325 116.854 95.2022 116.854C64.4145 116.854 45.8549 136.718 45.8549 159.055C45.8549 172.846 51.008 181.555 58.759 187.549C66.4707 193.513 76.7299 196.768 86.8859 199.749C87.6859 199.983 88.4852 200.217 89.2826 200.449C98.6518 203.181 107.76 205.837 114.718 210.307C118.481 212.725 121.595 215.662 123.771 219.411C125.945 223.159 127.198 227.747 127.198 233.492C127.198 242.934 124.219 251.12 117.896 256.949C111.57 262.783 101.829 266.318 88.1912 266.318C74.5818 266.318 63.1298 261.826 55.0842 254.275C47.0405 246.725 42.3738 236.093 42.3738 223.752V223.252H41.8738Z"
        fill="white" stroke="white" />
</svg>